{"title":"The Strain S03E02 Bad White 1080p AMZN WEBRip HEVC DD5.1 x265","uid":15764541,"size":805470255,"categoryP":"video","categoryS":"hd___tv_shows","magnet":"?xt=urn:btih:6b64c38d8b0d64ebf375f1ed114b3a1263c3fffb&amp;dn=The+Strain+S03E02+Bad+White+1080p+AMZN+WEBRip+HEVC+DD5.1+x265&amp;tr=udp%3A%2F%2Ftracker.leechers-paradise.org%3A6969&amp;tr=udp%3A%2F%2Fzer0day.ch%3A1337&amp;tr=udp%3A%2F%2Fopen.demonii.com%3A1337&amp;tr=udp%3A%2F%2Ftracker.coppersurfer.tk%3A6969&amp;tr=udp%3A%2F%2Fexodus.desync.com%3A6969","seeders":34,"leechers":2,"uploader":"nayhtut","files":1,"time":1473133292,"description":"Source:  The Strain S03E02 Bad White 1080p AMZN WEBRip DD5 1 H 264-ViSUM (3.1 GB)\r\n \r\nComplete name                            : The.Strain.S03E02.Bad.White.1080p.AMZN.WEBRip.HEVC.DD5.1.x265.mkv\r\nFormat                                   : Matroska\r\nFormat version                           : Version 4 / Version 2\r\nFile size                                : 768 MiB\r\nDuration                                 : 46mn 44s\r\nOverall bit rate                         : 2 297 Kbps\r\nWriting application                      : Lavf57.25.100\r\nWriting library                          : Lavf57.25.100\r\n\r\nVideo\r\n\r\nID                                       : 1\r\nFormat                                   : V_MPEGH/ISO/HEVC\r\nCodec ID                                 : V_MPEGH/ISO/HEVC\r\nDuration                                 : 46mn 44s\r\nBit rate                                 : 1 868 Kbps\r\nWidth                                    : 1 920 pixels\r\nHeight                                   : 1 080 pixels\r\nDisplay aspect ratio                     : 16:9\r\nFrame rate                               : 25.000 fps\r\nBits/(Pixel*Frame)                       : 0.036\r\nStream size                              : 624 MiB (81%)\r\nWriting library                          : Lavc57.48.101 libx265\r\nDefault                                  : Yes\r\nForced                                   : No\r\nDURATION                                 : 00:46:44.811000000\r\n\r\nAudio\r\n\r\nID                                       : 2\r\nFormat                                   : AC-3\r\nFormat/Info                              : Audio Coding 3\r\nMode extension                           : CM (complete main)\r\nFormat settings, Endianness              : Big\r\nCodec ID                                 : A_AC3\r\nDuration                                 : 46mn 44s\r\nBit rate mode                            : Constant\r\nBit rate                                 : 384 Kbps\r\nChannel(s)                               : 6 channels\r\nChannel positions                        : Front: L C R, Side: L R, LFE\r\nSampling rate                            : 48.0 KHz\r\nBit depth                                : 16 bits\r\nCompression mode                         : Lossy\r\nStream size                              : 128 MiB (17%)\r\nWriting library                          : Lavc57.24.102 ac3\r\nDefault                                  : Yes\r\nForced                                   : No\r\nDURATION                                 : 00:46:44.767000000","torrent":{"xt":"urn:btih:6b64c38d8b0d64ebf375f1ed114b3a1263c3fffb","amp;dn":"The+Strain+S03E02+Bad+White+1080p+AMZN+WEBRip+HEVC+DD5.1+x265","amp;tr":["udp%3A%2F%2Ftracker.leechers-paradise.org%3A6969","udp%3A%2F%2Fzer0day.ch%3A1337","udp%3A%2F%2Fopen.demonii.com%3A1337","udp%3A%2F%2Ftracker.coppersurfer.tk%3A6969","udp%3A%2F%2Fexodus.desync.com%3A6969"],"infoHash":"6b64c38d8b0d64ebf375f1ed114b3a1263c3fffb","infoHashBuffer":{"type":"Buffer","data":[107,100,195,141,139,13,100,235,243,117,241,237,17,75,58,18,99,195,255,251]},"announce":[],"urlList":[]}}